<svg width="212" height="212" xmlns="http://www.w3.org/2000/svg" preserveAspectRatio="xMidYMid meet">

 <g>
  <title>background</title>
  <rect fill="none" id="canvas_background" height="602" width="802" y="-1" x="-1"/>
 </g>
 <g>
  <title>Layer 1</title>
  <rect id="svg_6" height="139.59681" width="142.61694" y="48.63444" x="34.02039" stroke-width="1.5" stroke="#000" fill="#fff"/>
  <g id="svg_1" fill="#000000" transform="translate(0,212) scale(0.10000000149011612,-0.10000000149011612) ">
   <path id="svg_2" d="m461,1852c-47,-23 -72,-61 -78,-116l-6,-46l-66,0c-108,0 -168,-44 -178,-132c-4,-37 -1,-49 22,-76c34,-40 74,-62 115,-62l30,0l0,-572c0,-554 1,-574 20,-606c11,-18 34,-41 52,-52c32,-19 52,-20 683,-20c631,0 651,1 683,20c18,11 41,34 52,52c19,32 20,52 20,606l0,572l55,0c65,0 102,16 140,62c23,27 26,39 22,76c-11,98 -66,132 -218,132l-106,0l-6,46c-9,86 -69,134 -167,134c-95,0 -156,-47 -167,-128l-6,-42l-317,0l-317,0l-6,42c-11,81 -72,128 -167,128c-33,0 -69,-7 -89,-18zm621,-279c17,-15 18,-39 18,-341c0,-289 -2,-327 -17,-344c-15,-17 -39,-18 -341,-18c-289,0 -327,2 -344,17c-17,15 -18,39 -18,341c0,289 2,327 17,344c15,17 39,18 341,18c289,0 327,-2 344,-17zm539,-332c21,-22 29,-39 29,-66c0,-51 -44,-95 -95,-95c-51,0 -95,44 -95,95c0,27 8,44 29,66c41,40 91,40 132,0zm91,-488c16,-15 18,-36 18,-236c0,-191 -2,-223 -17,-239c-15,-17 -49,-18 -656,-18c-582,0 -642,2 -659,17c-16,15 -18,36 -18,236c0,191 2,223 17,239c15,17 49,18 656,18c582,0 642,-2 659,-17z"/>
   <path id="svg_3" d="m561,1266c-13,-7 -30,-24 -37,-37c-51,-92 72,-183 146,-109c43,43 32,118 -21,145c-34,18 -57,18 -88,1z"/>
   <path id="svg_4" d="m777,552c-22,-25 -21,-75 1,-95c25,-22 75,-21 95,1c22,25 21,75 -1,95c-25,22 -75,21 -95,-1z"/>
   <path id="svg_5" d="m1277,552c-22,-25 -21,-75 1,-95c25,-22 75,-21 95,1c22,25 21,75 -1,95c-25,22 -75,21 -95,-1z"/>
  </g>
 </g>
</svg>